# xmcd
#
# Track frame offsets: 
#        150
#        26822
#        44033
#        76362
#        95138
#        113422
#        133138
#        158065
#        172680
#        189408
#        211678
#        231566
#
# Disc length: 3351 seconds
#
# Revision: 3
# Processed by: cddbd v1.5.2PL0 Copyright (c) Steve Scherf et al.
# Submitted via: ExactAudioCopy v0.95b4
#
DISCID=9c0d150c
DTITLE=Mario Biondi and the High Five Quintet - Handful of soul
DYEAR=2006
DGENRE=Jazz
TTITLE0=A child runs free
TTITLE1=No mercy for me
TTITLE2=This is what you are
TTITLE3=Rio de Janeiro blue
TTITLE4=Slow hot wind
TTITLE5=A handful of soul
TTITLE6=Never die
TTITLE7=On a clear day (you can see forever)
TTITLE8=Gig
TTITLE9=I can't keep from cryin' sometimes
TTITLE10=No trouble on the mountain
TTITLE11=I'm her daddy
EXTD=
EXTT0=
EXTT1=
EXTT2=
EXTT3=
EXTT4=
EXTT5=
EXTT6=
EXTT7=
EXTT8=
EXTT9=
EXTT10=
EXTT11=
PLAYORDER=
